<?xml version="1.0" standalone="no"?>
<!DOCTYPE svg PUBLIC "-//W3C//DTD SVG 20010904//EN"
 "http://www.w3.org/TR/2001/REC-SVG-20010904/DTD/svg10.dtd">
<svg
  xmlns="http://www.w3.org/2000/svg"
  width="200"
  height="200"
  viewBox="0 0 1200 329"
  preserveAspectRatio="xMidYMid meet"
>
  <g transform="translate(0,329) scale(0.1,-0.1)" fill="#000" stroke="none">
    <path d="M1719 3275 c-245 -40 -537 -180 -836 -401 -40 -30 -75 -54 -78 -54
-3 0 -5 88 -5 195 l0 195 -400 0 -400 0 0 -1560 0 -1560 430 0 430 0 0 970 0
969 98 76 c212 165 388 271 499 300 73 19 106 19 174 -1 70 -21 136 -87 164
-164 19 -53 20 -87 23 -1102 l3 -1048 429 0 430 0 0 973 0 974 129 97 c272
203 420 279 546 280 155 1 236 -68 271 -233 11 -54 14 -246 14 -1078 l0 -1013
425 0 426 0 -4 1248 c-3 1379 1 1295 -68 1472 -61 158 -169 295 -294 369 -210
127 -495 143 -800 45 -169 -54 -468 -220 -671 -372 l-40 -31 -28 57 c-95 194
-260 328 -472 382 -104 27 -281 34 -395 15z"/>
    <path d="M6100 3284 c-337 -43 -593 -154 -845 -366 -298 -251 -506 -639 -561
-1047 -70 -526 104 -1040 475 -1412 247 -246 534 -393 862 -439 111 -16 347
-13 458 6 276 46 529 178 729 381 l82 84 0 -200 0 -201 410 0 410 0 -2 1558
-3 1557 -405 0 -405 0 -3 -200 -2 -201 -103 101 c-255 250 -546 370 -916 380
-80 2 -162 1 -181 -1z m488 -744 c256 -62 484 -245 605 -485 65 -131 104 -327
92 -470 -34 -396 -290 -712 -670 -826 -88 -26 -315 -37 -408 -20 -386 73 -675
362 -748 748 -15 83 -6 318 16 398 44 160 166 355 287 458 124 106 313 193
473 217 87 13 257 3 353 -20z"/>
    <path d="M6275 2354 c-290 -47 -514 -245 -591 -524 -28 -99 -26 -282 5 -380
40 -131 86 -206 185 -305 145 -145 289 -205 492 -205 261 0 484 130 617 360
80 140 109 350 68 510 -65 260 -257 459 -506 525 -62 16 -218 27 -270 19z"/>
    <path d="M8280 3199 c0 -18 220 -338 377 -546 227 -303 520 -653 760 -906 l74
-78 -38 -43 c-382 -436 -604 -716 -905 -1136 -130 -182 -268 -385 -268 -395 0
-3 231 -5 513 -5 l512 1 105 162 c173 267 427 596 640 829 l89 98 87 -98 c200
-224 429 -527 624 -829 l105 -163 518 0 c284 0 517 2 517 5 0 3 -32 54 -72
113 -319 477 -708 982 -1055 1368 -40 45 -73 85 -73 90 0 5 41 54 91 109 267
292 578 674 818 1003 125 172 291 413 291 423 0 5 -221 9 -504 9 l-505 0 -100
-147 c-177 -260 -450 -600 -670 -835 l-72 -77 -86 92 c-249 265 -527 617 -699
882 l-54 85 -510 0 c-351 0 -510 -3 -510 -11z"/>
  </g>
</svg>
