<?xml version="1.0" encoding="UTF-8" standalone="no"?>
<svg
   xmlns:dc="http://purl.org/dc/elements/1.1/"
   xmlns:cc="http://creativecommons.org/ns#"
   xmlns:rdf="http://www.w3.org/1999/02/22-rdf-syntax-ns#"
   xmlns:svg="http://www.w3.org/2000/svg"
   xmlns="http://www.w3.org/2000/svg"
   viewBox="0 0 2738.6267 1289.8053"
   height="1289.8053"
   width="2738.6267"
   xml:space="preserve"
   id="svg2"
   version="1.1"><metadata
     id="metadata8"><rdf:RDF><cc:Work
         rdf:about=""><dc:format>image/svg+xml</dc:format><dc:type
           rdf:resource="http://purl.org/dc/dcmitype/StillImage" /></cc:Work></rdf:RDF></metadata><defs
     id="defs6"><clipPath
       id="clipPath18"
       clipPathUnits="userSpaceOnUse"><path
         id="path16"
         d="M 0,967.354 H 2053.971 V 0 H 0 Z" /></clipPath><clipPath
       id="clipPath30"
       clipPathUnits="userSpaceOnUse"><path
         id="path28"
         d="m 811.307,483.92 c 0,-60.319 48.898,-109.216 109.216,-109.216 v 0 c 60.319,0 109.217,48.897 109.217,109.216 v 0 c 0,60.318 -48.898,109.216 -109.217,109.216 v 0 c -60.318,0 -109.216,-48.898 -109.216,-109.216 m 42.779,-1.973 c 0,37.782 29.745,68.41 66.437,68.41 v 0 c 36.693,0 66.438,-30.628 66.438,-68.41 v 0 c 0,-37.783 -29.745,-68.411 -66.438,-68.411 v 0 c -36.692,0 -66.437,30.628 -66.437,68.411" /></clipPath><clipPath
       id="clipPath44"
       clipPathUnits="userSpaceOnUse"><path
         id="path42"
         d="M 0,967.354 H 2053.971 V 0 H 0 Z" /></clipPath><clipPath
       id="clipPath82"
       clipPathUnits="userSpaceOnUse"><path
         id="path80"
         d="m 811.307,483.92 c 0,-60.319 48.898,-109.216 109.216,-109.216 v 0 c 60.319,0 109.217,48.897 109.217,109.216 v 0 c 0,60.318 -48.898,109.216 -109.217,109.216 v 0 c -60.318,0 -109.216,-48.898 -109.216,-109.216 m 42.779,-1.973 c 0,37.782 29.745,68.41 66.437,68.41 v 0 c 36.693,0 66.438,-30.628 66.438,-68.41 v 0 c 0,-37.783 -29.745,-68.411 -66.438,-68.411 v 0 c -36.692,0 -66.437,30.628 -66.437,68.411 m 889.893,100.71 -72.485,-208.176 h 41.751 l 15.077,43.781 h 73.065 l 15.076,-43.781 h 41.752 l -72.485,208.176 z m 20.876,-59.727 22.035,-62.917 h -44.071 z m -170.193,59.727 -52.768,-147.869 -52.768,147.869 h -62.338 V 374.481 h 41.461 V 524.38 l 52.769,-147.87 -0.58,-2.029 h 42.911 l -0.58,2.029 52.77,147.87 V 374.481 h 41.46 v 208.176 z m -296.602,0 -72.485,-208.176 h 41.751 l 15.078,43.781 h 73.064 l 15.076,-43.781 h 41.752 l -72.486,208.176 z m 20.876,-59.727 22.035,-62.917 h -44.07 z m -259.202,59.727 V 374.481 h 41.751 v 66.686 h 34.502 l 35.082,-66.686 h 45.811 l -39.432,75.094 c 11.598,5.99 20.487,14.497 26.675,25.515 v 0 c 6.184,11.017 9.278,22.421 9.278,34.213 v 0 c 0,25.319 -7.153,43.876 -21.455,55.668 v 0 c -14.307,11.788 -34.023,17.686 -59.148,17.686 v 0 z m 41.751,-41.461 h 46.969 c 3.479,0 7.054,-1.45 10.728,-4.35 v 0 c 3.67,-2.898 6.715,-6.623 9.133,-11.161 v 0 c 2.415,-4.544 3.625,-9.134 3.625,-13.773 v 0 c 0,-5.028 -1.26,-10.053 -3.77,-15.077 v 0 c -2.513,-5.028 -5.703,-8.798 -9.568,-11.307 v 0 c -2.899,-1.74 -5.897,-2.61 -8.988,-2.61 v 0 h -48.129 z M 695.999,582.657 V 374.481 h 103.798 v 41.751 H 737.46 V 582.657 Z M 531.17,568.741 c -15.946,-9.279 -28.608,-21.891 -37.983,-37.838 v 0 C 483.81,514.956 479.126,497.511 479.126,478.57 v 0 c 0,-18.752 4.684,-36.099 14.061,-52.045 v 0 c 9.375,-15.946 22.037,-28.609 37.983,-37.982 v 0 c 15.946,-9.373 33.293,-14.062 52.044,-14.062 v 0 c 16.042,0 29.863,2.319 41.461,6.959 v 0 c 11.598,4.639 21.601,11.452 30.008,20.441 v 0 c 8.409,8.987 16.382,20.73 23.921,35.227 v 0 l -38.272,16.527 c -6.574,-12.178 -14.352,-21.457 -23.341,-27.834 v 0 c -8.987,-6.379 -20.25,-9.569 -33.777,-9.569 v 0 c -11.213,0 -21.36,2.994 -30.443,8.988 v 0 c -9.088,5.99 -16.237,13.963 -21.456,23.921 v 0 c -5.219,9.953 -7.828,20.63 -7.828,32.038 v 0 c 0,11.402 2.559,21.645 7.683,30.733 v 0 c 5.119,9.083 12.223,16.237 21.31,21.455 v 0 c 9.084,5.219 19.327,7.829 30.734,7.829 v 0 c 24.545,0 43.586,-12.468 57.118,-37.402 v 0 l 38.272,16.236 c -11.018,21.455 -23.876,37.257 -38.562,47.406 v 0 c -14.692,10.147 -33.633,15.221 -56.828,15.221 v 0 c -18.751,0 -36.098,-4.639 -52.044,-13.916 M 419.979,374.481 H 461.73 V 582.657 H 419.979 Z M 255.15,568.741 c -15.947,-9.279 -28.609,-21.891 -37.983,-37.838 v 0 C 207.79,514.956 203.106,497.511 203.106,478.57 v 0 c 0,-18.752 4.684,-36.099 14.061,-52.045 v 0 c 9.374,-15.946 22.036,-28.609 37.983,-37.982 v 0 c 15.946,-9.373 33.293,-14.062 52.043,-14.062 v 0 c 16.043,0 29.864,2.319 41.462,6.959 v 0 c 11.597,4.639 21.601,11.452 30.008,20.441 v 0 c 8.408,8.987 16.382,20.73 23.92,35.227 v 0 l -38.271,16.527 c -6.575,-12.178 -14.352,-21.457 -23.341,-27.834 v 0 c -8.987,-6.379 -20.25,-9.569 -33.778,-9.569 v 0 c -11.213,0 -21.36,2.994 -30.443,8.988 v 0 c -9.087,5.99 -16.236,13.963 -21.456,23.921 v 0 c -5.218,9.953 -7.828,20.63 -7.828,32.038 v 0 c 0,11.402 2.559,21.645 7.684,30.733 v 0 c 5.118,9.083 12.222,16.237 21.31,21.455 v 0 c 9.083,5.219 19.326,7.829 30.733,7.829 v 0 c 24.545,0 43.587,-12.468 57.119,-37.402 v 0 l 38.271,16.236 c -11.017,21.455 -23.875,37.257 -38.561,47.406 v 0 c -14.692,10.147 -33.633,15.221 -56.829,15.221 v 0 c -18.75,0 -36.097,-4.639 -52.043,-13.916" /></clipPath><clipPath
       id="clipPath94"
       clipPathUnits="userSpaceOnUse"><path
         id="path92"
         d="M 0,967.354 H 2053.971 V 0 H 0 Z" /></clipPath></defs><g
     transform="matrix(1.3333333,0,0,-1.3333333,0,1289.8053)"
     id="g10"><g
       id="g12"><g
         clip-path="url(#clipPath18)"
         id="g14"><g
           transform="translate(236.4904,402.3814)"
           id="g20"><path
             id="path22"
             style="fill:none;stroke:#1400c6;stroke-width:5;stroke-linecap:butt;stroke-linejoin:miter;stroke-miterlimit:10;stroke-dasharray:none;stroke-opacity:1"
             d="m 0,0 c 151.752,55.098 454.842,122.895 807.109,176.38 8.769,1.332 17.512,2.646 26.226,3.942" /></g></g></g><g
       id="g24"><g
         clip-path="url(#clipPath30)"
         id="g26"><g
           transform="translate(920.523,413.5364)"
           id="g32"><path
             id="path34"
             style="fill:#000000;fill-opacity:1;fill-rule:nonzero;stroke:none"
             d="m 0,0 c -36.693,0 -66.438,30.628 -66.438,68.41 0,37.783 29.745,68.411 66.438,68.411 36.692,0 66.438,-30.628 66.438,-68.411 C 66.438,30.628 36.692,0 0,0 m 0,179.6 c -60.318,0 -109.216,-48.898 -109.216,-109.216 0,-60.319 48.898,-109.217 109.216,-109.217 60.318,0 109.216,48.898 109.216,109.217 C 109.216,130.702 60.318,179.6 0,179.6" /></g><path
           id="path36"
           style="fill:#1400c6;fill-opacity:1;fill-rule:nonzero;stroke:none"
           d="m 955.132,362.703 h 99.057 v 239.895 h -99.057 z" /></g></g><g
       id="g38"><g
         clip-path="url(#clipPath44)"
         id="g40"><g
           transform="translate(255.1496,388.5429)"
           id="g46"><path
             id="path48"
             style="fill:#000000;fill-opacity:1;fill-rule:nonzero;stroke:none"
             d="m 0,0 c -15.946,9.373 -28.608,22.036 -37.982,37.982 -9.377,15.947 -14.062,33.293 -14.062,52.044 0,18.942 4.685,36.387 14.062,52.334 9.374,15.947 22.036,28.559 37.982,37.837 15.946,9.278 33.293,13.917 52.044,13.917 23.195,0 42.136,-5.074 56.828,-15.221 14.687,-10.149 27.544,-25.951 38.562,-47.406 l -38.272,-16.236 c -13.532,24.934 -32.573,37.402 -57.118,37.402 -11.407,0 -21.65,-2.61 -30.733,-7.829 C 12.223,139.605 5.119,132.452 0,123.369 c -5.124,-9.088 -7.684,-19.331 -7.684,-30.733 0,-11.408 2.61,-22.085 7.829,-32.038 5.219,-9.958 12.368,-17.931 21.456,-23.92 9.083,-5.994 19.23,-8.989 30.443,-8.989 13.527,0 24.79,3.19 33.777,9.569 8.989,6.378 16.767,15.656 23.341,27.834 L 147.434,48.565 C 139.896,34.068 131.922,22.325 123.514,13.338 115.105,4.35 105.103,-2.464 93.505,-7.104 81.907,-11.742 68.086,-14.061 52.044,-14.061 33.293,-14.061 15.946,-9.373 0,0" /></g><path
           id="path50"
           style="fill:#000000;fill-opacity:1;fill-rule:nonzero;stroke:none"
           d="M 419.979,582.657 H 461.73 V 374.481 h -41.751 z" /><g
           transform="translate(531.1701,388.5429)"
           id="g52"><path
             id="path54"
             style="fill:#000000;fill-opacity:1;fill-rule:nonzero;stroke:none"
             d="m 0,0 c -15.946,9.373 -28.608,22.036 -37.982,37.982 -9.377,15.947 -14.062,33.293 -14.062,52.044 0,18.942 4.685,36.387 14.062,52.334 9.374,15.947 22.036,28.559 37.982,37.837 15.946,9.278 33.293,13.917 52.044,13.917 23.195,0 42.136,-5.074 56.828,-15.221 14.687,-10.149 27.544,-25.951 38.562,-47.406 l -38.272,-16.236 c -13.532,24.934 -32.573,37.402 -57.118,37.402 -11.407,0 -21.65,-2.61 -30.733,-7.829 C 12.223,139.605 5.119,132.452 0,123.369 c -5.124,-9.088 -7.684,-19.331 -7.684,-30.733 0,-11.408 2.61,-22.085 7.828,-32.038 5.22,-9.958 12.369,-17.931 21.457,-23.92 9.083,-5.994 19.23,-8.989 30.443,-8.989 13.527,0 24.79,3.19 33.777,9.569 8.989,6.378 16.767,15.656 23.341,27.834 L 147.434,48.565 C 139.896,34.068 131.922,22.325 123.514,13.338 115.105,4.35 105.103,-2.464 93.505,-7.104 81.907,-11.742 68.086,-14.061 52.044,-14.061 33.293,-14.061 15.946,-9.373 0,0" /></g><g
           transform="translate(695.9992,582.6572)"
           id="g56"><path
             id="path58"
             style="fill:#000000;fill-opacity:1;fill-rule:nonzero;stroke:none"
             d="m 0,0 h 41.461 v -166.425 h 62.337 v -41.751 l -103.798,0 z" /></g><g
           transform="translate(1158.6027,485.5273)"
           id="g60"><path
             id="path62"
             style="fill:#1400c6;fill-opacity:1;fill-rule:nonzero;stroke:none"
             d="m 0,0 c 3.864,2.51 7.054,6.279 9.567,11.308 2.51,5.024 3.77,10.048 3.77,15.077 0,4.638 -1.21,9.228 -3.624,13.772 -2.419,4.539 -5.464,8.263 -9.134,11.162 -3.674,2.9 -7.248,4.35 -10.727,4.35 h -46.97 V -2.609 h 48.13 c 3.09,0 6.089,0.87 8.988,2.609 M -25.805,97.13 C -0.68,97.13 19.036,91.231 33.343,79.443 47.645,67.651 54.798,49.095 54.798,23.775 54.798,11.983 51.704,0.58 45.52,-10.438 39.332,-21.455 30.443,-29.963 18.846,-35.952 l 39.431,-75.094 h -45.81 l -35.082,66.686 h -34.503 v -66.686 H -98.869 V 97.13 Z" /></g><g
           transform="translate(1340.9709,460.0126)"
           id="g64"><path
             id="path66"
             style="fill:#1400c6;fill-opacity:1;fill-rule:nonzero;stroke:none"
             d="M 0,0 -22.035,62.917 -44.07,0 Z M -42.911,122.645 H -1.16 L 71.325,-85.531 H 29.573 l -15.076,43.78 h -73.065 l -15.077,-43.78 h -41.751 z" /></g><g
           transform="translate(1426.7883,582.6572)"
           id="g68"><path
             id="path70"
             style="fill:#1400c6;fill-opacity:1;fill-rule:nonzero;stroke:none"
             d="M 0,0 H 62.337 L 115.105,-147.869 167.874,0 h 62.337 V -208.176 H 188.75 v 149.899 l -52.77,-147.87 0.58,-2.029 H 93.65 l 0.579,2.029 -52.768,147.87 V -208.176 H 0 Z" /></g><g
           transform="translate(1786.8898,460.0126)"
           id="g72"><path
             id="path74"
             style="fill:#1400c6;fill-opacity:1;fill-rule:nonzero;stroke:none"
             d="M 0,0 -22.035,62.917 -44.07,0 Z M -42.911,122.645 H -1.16 L 71.325,-85.531 H 29.573 l -15.076,43.78 h -73.064 l -15.078,-43.78 h -41.751 z" /></g></g></g><g
       id="g76"><g
         clip-path="url(#clipPath82)"
         id="g78"><g
           transform="translate(190.5625,188.1954)"
           id="g84"><path
             id="path86"
             style="fill:#c1c1c0;fill-opacity:1;fill-rule:nonzero;stroke:none"
             d="m 0,0 -14.298,79.898 1702.161,304.605 14.298,-79.898 z" /></g></g></g><g
       id="g88"><g
         clip-path="url(#clipPath94)"
         id="g90"><g
           transform="translate(1984.7268,619.153)"
           id="g96"><path
             id="path98"
             style="fill:none;stroke:#1400c6;stroke-width:5;stroke-linecap:butt;stroke-linejoin:miter;stroke-miterlimit:10;stroke-dasharray:none;stroke-opacity:1"
             d="m 0,0 c 8.402,-55.335 -399.334,-163.134 -910.702,-240.776 -511.368,-77.642 -932.725,-95.726 -941.127,-40.391" /></g><g
           transform="translate(1069.8256,582.7034)"
           id="g100"><path
             id="path102"
             style="fill:none;stroke:#1400c6;stroke-width:5;stroke-linecap:butt;stroke-linejoin:miter;stroke-miterlimit:10;stroke-dasharray:none;stroke-opacity:1"
             d="M 0,0 C 499.472,74.299 906.644,90.836 914.901,36.45" /></g><g
           transform="translate(132.8979,337.9856)"
           id="g104"><path
             id="path106"
             style="fill:none;stroke:#1400c6;stroke-width:5;stroke-linecap:butt;stroke-linejoin:miter;stroke-miterlimit:10;stroke-dasharray:none;stroke-opacity:1"
             d="M 0,0 C -2.614,17.216 35.054,39.511 103.593,64.396" /></g></g></g></g></svg>