<?xml version="1.0" encoding="UTF-8"?>
<svg version="1.1" viewBox="0 0 2048 964" width="4280" height="2016" xmlns="http://www.w3.org/2000/svg">
<path transform="translate(0)" d="m0 0h2048v964h-2048z" fill="#FEFEFE"/>
<path transform="translate(1019,235)" d="m0 0 2 1 17 138v7l-17 33-10 19-1 6 7 9 8 15 6 18 2 11v29l-4 18-6 15-6 11-9 12-9 10-16 12-17 9-16 5-11 2h-24l-2 6-15 29-10 19-15 29-10 19-14 27h-2l-18-140 11-22 1-5-8-10-10-19-6-20-2-17 1-20 4-17 6-15 6-11 9-12 15-15 15-10 18-8 22-5h25l2-6 18-35 35-68 17-33z" fill="#1200C4"/>
<path transform="translate(1429,409)" d="m0 0h63l40 112 11 31v3h2l1-6 19-53 20-56 11-31h63v207h-41l-1-147-22 62-19 53-10 28-1 4h-42l-4-13-17-48-19-53-11-31-1 144-1 1h-40l-1-1z"/>
<path transform="translate(1016,251)" d="m0 0 2 1 15 121v7l-18 35-12 22-23 45-24 46-14 27-10 19-15 28-12 24-10 19-15 29-10 19-14 27-5 8h-1l-11-84-4-31v-10l10-20 4 2 12 10 12 7 9-16 9-17-4-4-10-8-9-12-1-4 12-24 10-19 23-45 7-12 2-1 15 1 13 4 5 2 12-22 8-16-10-3-16-5-7-2 2-6 36-70 15-29 20-39z" fill="#FEFEFE"/>
<path transform="translate(1063,409)" d="m0 0h90l18 4 12 5 10 6 8 7 7 10 5 12 3 14v25l-3 12-8 16-8 10-12 9-4 1 8 16 17 33 12 22 1 5h-45l-14-27-12-22-9-17-34-1v67h-41l-1-1z"/>
<path transform="translate(1745,409)" d="m0 0h42l5 12 20 58 14 40 22 63 11 31v3h-41l-4-10-11-32v-2l-73 1-14 41-1 2h-41l2-9 18-52 30-86z"/>
<path transform="translate(1301,409)" d="m0 0h42l12 34 22 63 17 49 15 43 5 14v4h-41l-15-43-73-1-2 9-12 34-1 1h-41l3-10 22-64 17-48 21-61 8-23z"/>
<path transform="translate(299,409)" d="m0 0h30l16 3 16 6 11 7 10 9 8 8 12 17 6 12-30 13-8 3-10-14-8-9-11-7-9-4-8-2h-22l-14 4-12 7-7 6-7 10-5 11-3 14v13l3 15 8 16 6 8 10 9 14 7 8 2h21l12-3 11-6 10-9 9-12 4-6 24 10 13 6-1 5-11 18-11 13-7 7-14 9-13 6-18 4-11 1h-15l-19-3-15-5-15-8-14-11-10-10-9-13-8-16-5-16-2-15v-14l3-19 5-15 8-15 11-14 9-9 14-10 16-8 13-4z"/>
<path transform="translate(574,409)" d="m0 0h31l18 4 13 5 11 7 10 9 9 9 9 13 8 14-4 3-33 14-4-4-6-9-9-10-11-7-12-5-5-1h-22l-14 4-12 7-6 5-8 11-5 11-2 8-1 16 2 14 5 13 6 10 9 10 10 7 9 4 8 2h21l12-3 10-5 12-11 8-11 4-6 17 7 21 9-7 14-10 14-9 10-10 9-12 7-14 5-14 3-11 1h-14l-16-2-16-5-16-8-11-8-10-9-8-9-11-18-7-19-2-10-1-11v-10l3-21 7-19 9-15 9-11 7-7 15-11 19-9 15-4z"/>
<path transform="translate(701,409)" d="m0 0h41v165h62v42h-103z"/>
<path transform="translate(1016,251)" d="m0 0 2 1 15 121v7l-18 35-12 22-20 39-3-3-9-12-8-7-8-5 1-5 18-35-10-3-16-5-7-2 2-6 36-70 15-29 20-39z" fill="#FDFDFD"/>
<path transform="translate(426,409)" d="m0 0h41v207h-41z"/>
<path transform="translate(911,398)" d="m0 0 23 1-2 6-18 35-12 5-14 7-10 9-3 1-2 4-7 11-4 10-2 7-1 8v13l3 15 1 9-17 33-3 5-4-2-9-13-8-17-5-17-2-17 1-20 4-17 6-15 6-11 9-12 15-15 15-10 18-8z" fill="#000006"/>
<path transform="translate(892,568)" d="m0 0 6 2 11 4 12 2h9l-9 19-10 19-19 37-10 19-14 27-10 19-7 12h-1l-11-84-4-31v-10l10-20 4 2 12 10 12 7 9-16 9-17z" fill="#FDFDFD"/>
<path transform="translate(1105,450)" d="m0 0h51l7 4 8 9 4 10v13l-4 10-9 10-6 2h-51z" fill="#FDFDFD"/>
<path transform="translate(908,442)" d="m0 0h5l-20 40-10 19-18 35-3-3-3-11-1-7v-13l2-11 3-10 9-15 13-13 14-8z" fill="#FBFBFB"/>
<path transform="translate(985,482)" d="m0 0 2 3 3 11 1 8v9l-3 16-5 12-7 11-12 12-14 8-9 3h-4l2-6 18-35 10-19 14-27z" fill="#FBFBFB"/>
<path transform="translate(974,409)" d="m0 0 11 6 10 8 10 9-9 19-12 23-2 2-10-14-9-8-8-5 1-5z" fill="#C1C1BF"/>
<path transform="translate(892,568)" d="m0 0 6 2 11 4 12 2h9l-9 19-10 19-2 2-24-7-11-5 1-5 14-27z" fill="#C1C1BF"/>
<path transform="translate(940,400)" d="m0 0h8l16 5 10 4-2 6-17 33-14-5-21-3 9-19z" fill="#01000D"/>
<path transform="translate(1766,469)" d="m0 0 2 2 20 57v3h-43l1-7 17-48z" fill="#F9F9F9"/>
<path transform="translate(1321,469)" d="m0 0h2l20 58 1 4h-44l3-11z" fill="#F9F9F9"/>
<path transform="translate(866,544)" d="m0 0 3 1 10 13 13 10-8 16-10 19-10-5-10-8-7-6 1-5 15-30z" fill="#01000F"/>
</svg>
