<?xml version="1.0" standalone="no"?>
<!DOCTYPE svg PUBLIC "-//W3C//DTD SVG 20010904//EN"
 "http://www.w3.org/TR/2001/REC-SVG-20010904/DTD/svg10.dtd">
<svg
  xmlns="http://www.w3.org/2000/svg"
  width="200"
  height="200"
  viewBox="0 0 1000 1000"
  preserveAspectRatio="xMidYMid meet"
>
  <g transform="translate(0,1000) scale(0.1,-0.1)" fill="#000">
    <path d="M2945 6759 c-854 -65 -1399 -384 -1502 -877 -66 -321 118 -630 407
-682 175 -32 417 48 590 193 136 114 262 286 319 437 41 108 46 142 22 171
-16 20 -22 22 -43 12 -14 -6 -39 -35 -55 -65 -63 -109 -192 -218 -356 -299
-241 -118 -417 -97 -494 58 -62 128 -19 325 106 480 164 203 467 348 856 408
146 23 510 31 658 15 139 -15 429 -67 645 -116 l162 -37 -72 -39 c-267 -144
-676 -545 -958 -938 -52 -73 -102 -140 -110 -150 -11 -15 -43 -23 -134 -35
-249 -34 -447 -88 -554 -152 -72 -43 -97 -67 -117 -109 -31 -66 23 -99 82 -50
42 35 102 63 195 90 105 30 326 68 374 64 l37 -3 -88 -120 c-377 -517 -727
-888 -1024 -1087 -231 -154 -385 -204 -611 -197 -102 4 -122 7 -173 33 -203
99 -297 364 -211 595 56 150 203 330 316 387 96 48 121 87 76 118 -32 23 -56
20 -163 -18 -293 -105 -528 -344 -600 -611 -53 -195 -9 -457 106 -636 200
-309 620 -440 1055 -329 285 73 539 289 889 755 143 189 434 625 625 933 83
134 132 203 145 206 11 2 112 14 225 26 113 11 288 33 389 47 172 24 184 25
193 9 39 -69 125 -126 191 -126 31 0 38 4 43 25 9 36 0 51 -36 59 -30 6 -100
64 -100 83 0 5 34 31 75 57 87 55 134 107 177 193 67 137 44 249 -63 303 -49
25 -130 26 -184 1 -56 -25 -118 -97 -145 -167 -23 -59 -32 -169 -20 -239 l5
-30 -150 -22 c-178 -25 -495 -57 -502 -49 -12 12 140 244 273 416 110 141 320
355 477 484 121 100 161 147 151 178 -3 12 0 18 10 18 9 0 165 -49 348 -109
496 -163 695 -217 973 -264 526 -90 852 -54 1240 138 212 105 335 213 335 294
0 85 -58 98 -251 57 -232 -49 -322 -57 -711 -63 -681 -10 -1218 40 -2173 202
-143 24 -332 51 -420 60 -195 19 -586 27 -750 14z m1476 -1057 c22 -57 -21
-162 -95 -230 -43 -40 -90 -61 -104 -48 -3 4 -8 35 -10 70 -8 123 37 211 124
241 46 16 70 6 85 -33z"/>
    <path d="M8809 5233 c-156 -263 -305 -516 -332 -562 l-50 -84 -45 87 c-82 159
-175 232 -328 257 -131 21 -322 -14 -464 -86 -115 -58 -200 -130 -460 -388
-264 -263 -336 -321 -444 -362 -81 -30 -217 -50 -289 -41 -77 10 -153 57 -191
120 -73 118 -28 332 83 394 21 12 41 22 44 22 3 0 10 -15 17 -34 15 -46 74
-113 124 -138 58 -30 171 -36 231 -14 57 22 124 87 155 151 20 40 24 66 25
131 0 72 -3 85 -30 130 -94 152 -334 176 -528 52 -29 -18 -98 -77 -154 -132
l-103 -99 0 55 c0 113 -57 207 -152 248 -41 18 -76 25 -153 28 -117 5 -173
-12 -277 -80 -81 -54 -312 -286 -453 -456 l-110 -132 -6 132 c-9 202 -56 342
-144 435 -41 43 -46 45 -82 38 -52 -9 -82 -30 -99 -70 -21 -50 -18 -67 20
-124 54 -80 80 -170 79 -276 -2 -205 -46 -361 -142 -507 -126 -190 -284 -333
-428 -388 -81 -31 -222 -39 -291 -16 -67 23 -131 81 -167 152 -25 52 -30 73
-33 166 -4 94 -1 119 22 200 103 356 360 614 706 708 l95 26 -2 34 c-1 27 -11
44 -43 74 l-42 39 -87 -6 c-287 -21 -539 -185 -726 -472 -29 -44 -113 -197
-186 -340 -127 -247 -138 -264 -209 -336 -69 -69 -221 -191 -251 -201 -27 -9
45 -128 77 -128 38 0 261 139 314 195 31 33 37 32 45 -12 18 -97 115 -229 216
-294 128 -82 335 -111 499 -70 177 44 360 158 530 331 97 98 142 155 288 360
174 245 421 535 527 618 83 65 177 112 223 112 41 0 102 -55 102 -92 0 -48
-43 -176 -94 -283 -30 -60 -176 -317 -325 -569 -149 -253 -271 -463 -271 -468
0 -4 96 -8 214 -8 l213 0 160 298 c350 649 363 670 363 616 0 -37 71 -166 117
-211 84 -84 174 -113 351 -113 129 0 223 13 300 40 31 12 64 23 73 26 14 5 15
-1 8 -43 -35 -215 62 -452 225 -548 121 -71 328 -72 576 -3 91 25 237 87 292
123 41 27 57 23 58 -13 0 -21 30 -75 59 -105 37 -40 69 -55 148 -67 166 -26
363 45 568 205 193 151 515 525 515 598 0 19 -33 47 -56 47 -11 0 -55 -39
-109 -96 -166 -180 -395 -374 -530 -449 -34 -19 -88 -41 -122 -50 -56 -14 -65
-14 -91 -1 -50 26 -56 81 -18 161 20 43 1073 1912 1128 2003 l20 32 -205 0
-205 0 -283 -477z m-738 -554 c129 -43 173 -178 113 -344 -33 -92 -32 -89 -6
-93 12 -2 22 -7 22 -11 0 -11 -112 -178 -186 -278 -82 -111 -276 -300 -354
-346 -125 -72 -256 -90 -345 -47 -40 19 -52 32 -74 79 -23 50 -26 68 -25 161
0 91 5 118 32 197 77 226 212 414 397 554 159 120 312 166 426 128z"/>
  </g>
</svg>
